<?xml version="1.0" encoding="UTF-8"?>
<svg xmlns="http://www.w3.org/2000/svg" viewBox="5 8 275 148" role="img" aria-label="Astrobeg Logo Mark">
  <title>Astrobeg</title>

  <!-- Horizontal staff left -->
  <line x1="10" y1="90" x2="135" y2="90" stroke="currentColor" stroke-width="3" stroke-linecap="round"/>
  <!-- Horizontal staff right -->
  <line x1="255" y1="90" x2="275" y2="90" stroke="currentColor" stroke-width="3" stroke-linecap="round"/>

  <!-- Left T-ornament vertical -->
  <line x1="18" y1="77" x2="18" y2="103" stroke="currentColor" stroke-width="3" stroke-linecap="round"/>
  <!-- Left T-ornament horizontal cap -->
  <line x1="10" y1="77" x2="32" y2="77" stroke="currentColor" stroke-width="2.5" stroke-linecap="round"/>

  <!-- Outer circle -->
  <circle cx="195" cy="90" r="60" fill="none" stroke="currentColor" stroke-width="2.5"/>
  <!-- Inner ring 1 (teeth floor) -->
  <circle cx="195" cy="90" r="47" fill="none" stroke="currentColor" stroke-width="2"/>
  <!-- Inner ring 2 -->
  <circle cx="195" cy="90" r="35" fill="none" stroke="currentColor" stroke-width="2"/>
  <!-- Inner ring 3 -->
  <circle cx="195" cy="90" r="23" fill="none" stroke="currentColor" stroke-width="2"/>
  <!-- Inner ring 4 -->
  <circle cx="195" cy="90" r="12" fill="none" stroke="currentColor" stroke-width="1.5"/>
  <!-- Center dot -->
  <circle cx="195" cy="90" r="4" fill="currentColor"/>

  <!-- Sun rays — 11 lines, 200° to 340°, 14° apart, from r=60 to r=78 -->
  <line x1="138.6" y1="69.5" x2="121.7" y2="63.3" stroke="currentColor" stroke-width="2.5" stroke-linecap="round"/>
  <line x1="145.3" y1="56.5" x2="130.3" y2="46.4" stroke="currentColor" stroke-width="2.5" stroke-linecap="round"/>
  <line x1="154.9" y1="45.4" x2="142.8" y2="32.1" stroke="currentColor" stroke-width="2.5" stroke-linecap="round"/>
  <line x1="166.9" y1="37.0" x2="158.4" y2="21.1" stroke="currentColor" stroke-width="2.5" stroke-linecap="round"/>
  <line x1="180.5" y1="31.8" x2="176.1" y2="14.3" stroke="currentColor" stroke-width="2.5" stroke-linecap="round"/>
  <line x1="195"   y1="30"   x2="195"   y2="12"   stroke="currentColor" stroke-width="2.5" stroke-linecap="round"/>
  <line x1="209.5" y1="31.8" x2="213.9" y2="14.3" stroke="currentColor" stroke-width="2.5" stroke-linecap="round"/>
  <line x1="223.1" y1="37.0" x2="231.6" y2="21.1" stroke="currentColor" stroke-width="2.5" stroke-linecap="round"/>
  <line x1="235.1" y1="45.4" x2="247.2" y2="32.1" stroke="currentColor" stroke-width="2.5" stroke-linecap="round"/>
  <line x1="244.7" y1="56.5" x2="259.7" y2="46.4" stroke="currentColor" stroke-width="2.5" stroke-linecap="round"/>
  <line x1="251.4" y1="69.5" x2="268.3" y2="63.3" stroke="currentColor" stroke-width="2.5" stroke-linecap="round"/>

  <!-- Wheel teeth — 12 filled arc segments in lower half (1.5°–178.5°) -->
  <path fill="currentColor" d="M 242.0 91.2 L 255.0 91.6 A 60 60 0 0 1 253.3 104.0 L 240.7 101.0 A 47 47 0 0 0 242.0 91.2 Z"/>
  <path fill="currentColor" d="M 240.1 103.4 L 252.5 107.0 A 60 60 0 0 1 247.7 118.6 L 236.3 112.4 A 47 47 0 0 0 240.1 103.4 Z"/>
  <path fill="currentColor" d="M 235.1 114.6 L 246.2 121.4 A 60 60 0 0 1 238.5 131.3 L 229.1 122.4 A 47 47 0 0 0 235.1 114.6 Z"/>
  <path fill="currentColor" d="M 227.4 124.1 L 236.3 133.5 A 60 60 0 0 1 226.4 141.2 L 219.6 130.1 A 47 47 0 0 0 227.4 124.1 Z"/>
  <path fill="currentColor" d="M 217.4 131.3 L 223.6 142.7 A 60 60 0 0 1 212.0 147.5 L 208.4 135.1 A 47 47 0 0 0 217.4 131.3 Z"/>
  <path fill="currentColor" d="M 206.0 135.7 L 209.0 148.3 A 60 60 0 0 1 196.6 150.0 L 196.2 137.0 A 47 47 0 0 0 206.0 135.7 Z"/>
  <path fill="currentColor" d="M 193.8 137.0 L 193.4 150.0 A 60 60 0 0 1 181.0 148.3 L 184.0 135.7 A 47 47 0 0 0 193.8 137.0 Z"/>
  <path fill="currentColor" d="M 181.7 135.1 L 178.0 147.5 A 60 60 0 0 1 166.4 142.7 L 172.6 131.3 A 47 47 0 0 0 181.7 135.1 Z"/>
  <path fill="currentColor" d="M 170.4 130.1 L 163.7 141.2 A 60 60 0 0 1 153.7 133.5 L 162.6 124.1 A 47 47 0 0 0 170.4 130.1 Z"/>
  <path fill="currentColor" d="M 160.9 122.4 L 151.5 131.3 A 60 60 0 0 1 138.8 121.4 L 154.9 114.6 A 47 47 0 0 0 160.9 122.4 Z"/>
  <path fill="currentColor" d="M 153.7 112.4 L 142.3 118.6 A 60 60 0 0 1 137.5 107.0 L 149.9 103.4 A 47 47 0 0 0 153.7 112.4 Z"/>
  <path fill="currentColor" d="M 149.3 101.0 L 136.7 104.0 A 60 60 0 0 1 135.0 91.6 L 148.0 91.2 A 47 47 0 0 0 149.3 101.0 Z"/>
</svg>
